<svg xmlns="http://www.w3.org/2000/svg" xmlns:xlink="http://www.w3.org/1999/xlink" width="1000" zoomAndPan="magnify" viewBox="0 0 750 149.999998" height="200" preserveAspectRatio="xMidYMid meet" version="1.0"><defs><g/><clipPath id="8e87a12dac"><path d="M 75 0.898438 L 130 0.898438 L 130 105 L 75 105 Z M 75 0.898438 " clip-rule="nonzero"/></clipPath><clipPath id="68d197a409"><path d="M 1 66 L 91 66 L 91 113.921875 L 1 113.921875 Z M 1 66 " clip-rule="nonzero"/></clipPath><clipPath id="6ab3f3fc27"><path d="M 115 66 L 205.519531 66 L 205.519531 113.921875 L 115 113.921875 Z M 115 66 " clip-rule="nonzero"/></clipPath><clipPath id="602ce51b01"><path d="M 56.566406 7.910156 L 139.648438 7.910156 L 139.648438 112.554688 L 56.566406 112.554688 Z M 56.566406 7.910156 " clip-rule="nonzero"/></clipPath><clipPath id="64228b98d2"><path d="M 0.566406 1 L 83.539062 1 L 83.539062 105.554688 L 0.566406 105.554688 Z M 0.566406 1 " clip-rule="nonzero"/></clipPath><clipPath id="0e8b87211d"><rect x="0" width="84" y="0" height="106"/></clipPath><clipPath id="bdaa4fed51"><rect x="0" width="206" y="0" height="114"/></clipPath><clipPath id="300e1e5cdf"><rect x="0" width="410" y="0" height="139"/></clipPath></defs><g transform="matrix(1, 0, 0, 1, 64, 14)"><g clip-path="url(#bdaa4fed51)"><g clip-path="url(#8e87a12dac)"><path fill="#97a89a" d="M 112.191406 10.753906 L 102.316406 0.878906 L 92.449219 10.753906 C 82.222656 20.972656 76.1875 34.269531 75.195312 48.550781 C 75.101562 49.941406 75.050781 51.339844 75.050781 52.746094 C 75.050781 68.609375 81.230469 83.527344 92.449219 94.742188 L 102.316406 104.613281 L 104.121094 102.8125 C 104.210938 102.644531 104.304688 102.476562 104.402344 102.3125 C 104.707031 101.78125 105.179688 101.402344 105.722656 101.210938 L 112.191406 94.742188 C 135.347656 71.585938 135.347656 33.90625 112.191406 10.753906 Z M 112.191406 10.753906 " fill-opacity="1" fill-rule="nonzero"/></g><g clip-path="url(#68d197a409)"><path fill="#97a89a" d="M 28.839844 66.609375 C 19.203125 66.988281 9.859375 69.1875 1.007812 73.148438 C 18.253906 105.8125 56.46875 120.941406 90.925781 110.007812 C 79.28125 108.589844 68.089844 104.65625 58.0625 98.398438 C 45.589844 90.613281 35.511719 79.644531 28.839844 66.609375 Z M 28.839844 66.609375 " fill-opacity="1" fill-rule="nonzero"/></g><path fill="#97a89a" d="M 70.101562 52.746094 C 70.101562 51.65625 70.132812 50.574219 70.183594 49.496094 C 57.253906 39.574219 41.359375 34.066406 25.046875 33.84375 C 25.582031 44.054688 28.105469 53.851562 32.566406 63.003906 C 32.578125 63.03125 32.597656 63.0625 32.609375 63.089844 C 44.644531 87.699219 69.167969 103.886719 96.222656 105.515625 L 88.945312 98.242188 C 76.796875 86.089844 70.101562 69.933594 70.101562 52.746094 Z M 70.101562 52.746094 " fill-opacity="1" fill-rule="nonzero"/><path fill="#97a89a" d="M 172.109375 62.988281 C 176.574219 53.839844 179.097656 44.046875 179.625 33.84375 C 163.285156 34.066406 147.367188 39.585938 134.425781 49.546875 C 135.292969 67.070312 129.042969 84.886719 115.6875 98.242188 L 108.40625 105.527344 C 135.808594 103.957031 159.960938 87.945312 172.109375 62.988281 Z M 172.109375 62.988281 " fill-opacity="1" fill-rule="nonzero"/><g clip-path="url(#6ab3f3fc27)"><path fill="#97a89a" d="M 175.859375 66.554688 C 169.332031 79.335938 159.5 90.167969 147.355469 97.933594 C 137.523438 104.222656 126.507812 108.261719 115.023438 109.84375 C 149.625 121.085938 188.117188 105.96875 205.449219 73.148438 C 196.042969 68.9375 186.105469 66.71875 175.859375 66.554688 Z M 175.859375 66.554688 " fill-opacity="1" fill-rule="nonzero"/></g><g clip-path="url(#602ce51b01)"><g transform="matrix(1, 0, 0, 1, 56, 7)"><g clip-path="url(#0e8b87211d)"><g clip-path="url(#64228b98d2)"><path fill="#274543" d="M 0.964844 102.234375 C 1.777344 101.820312 2.617188 101.488281 3.507812 101.300781 C 3.882812 101.21875 4.238281 101.109375 4.574219 100.929688 C 5.078125 100.660156 5.554688 100.328125 6.183594 100.378906 C 6.429688 100.402344 6.636719 100.179688 6.859375 100.070312 C 7.566406 99.71875 8.140625 99.183594 8.789062 98.75 C 10.40625 97.679688 12 96.574219 13.589844 95.46875 C 15.378906 94.222656 17.230469 93.113281 19.367188 92.558594 C 21.296875 92.058594 23.28125 91.898438 25.242188 91.59375 C 26.058594 91.464844 26.90625 91.492188 27.664062 91.089844 C 29.757812 89.972656 31.632812 88.582031 33.03125 86.640625 C 33.710938 85.695312 34.570312 84.976562 35.519531 84.347656 C 36.804688 83.496094 37.992188 82.539062 38.90625 81.28125 C 39.917969 79.894531 40.355469 78.261719 40.894531 76.667969 C 41.195312 75.765625 41.496094 74.800781 42.296875 74.226562 C 43.191406 73.585938 44.050781 72.867188 45.09375 72.453125 C 45.988281 72.09375 46.582031 71.421875 46.953125 70.5625 C 47.398438 69.539062 47.597656 68.449219 47.691406 67.339844 C 47.84375 65.460938 46.878906 63.957031 45.988281 62.441406 C 45.839844 62.1875 45.5625 62.015625 45.273438 61.910156 C 45.117188 61.851562 44.964844 61.902344 44.871094 62.035156 C 44.792969 62.148438 44.789062 62.292969 44.917969 62.367188 C 45.234375 62.546875 45.101562 62.730469 44.9375 62.910156 C 44.765625 63.09375 44.597656 63.289062 44.398438 63.4375 C 44.066406 63.691406 43.960938 63.972656 44.171875 64.351562 C 44.269531 64.535156 44.359375 64.75 44.222656 64.925781 C 43.828125 65.417969 43.625 66.03125 43.171875 66.484375 C 42.976562 66.679688 42.765625 66.726562 42.5 66.746094 C 41.09375 66.855469 40.023438 66.140625 39.0625 65.277344 C 38.59375 64.855469 38.351562 64.164062 37.542969 64.265625 C 37.523438 64.265625 37.492188 64.25 37.480469 64.230469 C 37.171875 63.742188 36.601562 63.664062 36.15625 63.394531 C 35.304688 62.882812 34.8125 61.96875 33.945312 61.488281 C 33.535156 61.261719 33.507812 60.949219 33.652344 60.527344 C 33.828125 60.015625 33.730469 59.527344 33.53125 58.996094 C 33.160156 57.996094 32.667969 57.023438 32.570312 55.921875 C 32.53125 55.464844 32.390625 55.011719 32.027344 54.625 C 31.683594 54.257812 31.332031 53.800781 31.640625 53.207031 C 31.714844 53.0625 31.6875 52.902344 31.617188 52.769531 C 31.417969 52.394531 31.492188 52.042969 31.636719 51.679688 C 31.707031 51.496094 31.792969 51.304688 31.769531 51.09375 C 31.636719 49.996094 31.40625 48.917969 31.273438 47.820312 C 31.136719 46.6875 30.886719 45.542969 30.523438 44.441406 C 30.46875 44.277344 30.429688 44.097656 30.417969 43.925781 C 30.242188 41.757812 30.441406 40.429688 31.273438 38.476562 C 31.429688 38.117188 31.570312 37.816406 31.382812 37.414062 C 31.246094 37.113281 31.425781 36.871094 31.761719 36.808594 C 31.957031 36.773438 32.167969 36.753906 32.363281 36.785156 C 32.96875 36.878906 33.503906 36.683594 34.03125 36.425781 C 34.527344 36.183594 35.019531 35.925781 35.515625 35.675781 C 36.035156 35.417969 36.550781 35.152344 37.167969 35.269531 C 37.402344 35.316406 37.628906 35.222656 37.8125 35.089844 C 38.296875 34.730469 38.859375 34.496094 39.296875 34.054688 C 39.722656 33.628906 39.992188 33.671875 40.296875 34.210938 C 40.492188 34.554688 40.703125 34.691406 41.085938 34.566406 C 41.488281 34.4375 41.828125 34.488281 42.015625 34.945312 C 42.082031 35.105469 42.246094 35.285156 42.429688 35.164062 C 42.796875 34.917969 43.070312 35.015625 43.363281 35.285156 C 43.542969 35.449219 43.777344 35.4375 44.011719 35.410156 C 44.886719 35.304688 45.113281 35.492188 45.078125 36.351562 C 45.050781 37.078125 45.253906 37.757812 45.476562 38.421875 C 45.679688 39.011719 46.128906 39.042969 46.464844 38.511719 C 47.199219 37.359375 47.878906 36.183594 47.972656 34.769531 C 47.992188 34.46875 48.082031 34.171875 48.132812 33.875 C 48.421875 32.183594 48.742188 30.484375 48.4375 28.769531 C 48.023438 26.429688 48.121094 24.101562 48.394531 21.765625 C 48.566406 20.316406 48.820312 18.871094 48.636719 17.398438 C 48.527344 16.503906 48.445312 15.601562 48.367188 14.703125 C 48.179688 12.621094 48.007812 12.441406 46.167969 11.324219 C 45.867188 11.140625 45.566406 10.957031 45.300781 10.71875 C 44.53125 10.027344 43.75 9.351562 42.753906 8.992188 C 42.535156 8.914062 42.324219 8.785156 42.371094 8.503906 C 42.421875 8.222656 42.621094 8.066406 42.894531 8.03125 C 43.40625 7.96875 43.902344 8.011719 44.363281 8.265625 C 44.695312 8.449219 45.035156 8.617188 45.375 8.785156 C 45.578125 8.886719 45.804688 9.019531 46.011719 8.855469 C 46.246094 8.671875 46.34375 8.378906 46.238281 8.105469 C 46 7.472656 45.917969 6.785156 45.496094 6.214844 C 44.933594 5.460938 44.59375 4.589844 44.289062 3.707031 C 44.175781 3.375 44.054688 3.039062 44.070312 2.675781 C 44.097656 2.164062 44.316406 1.917969 44.824219 1.976562 C 45.175781 2.015625 45.226562 1.875 45.332031 1.609375 C 45.582031 0.992188 45.859375 0.921875 46.433594 1.289062 C 46.585938 1.382812 46.683594 1.472656 46.898438 1.390625 C 47.566406 1.140625 47.695312 1.179688 48.003906 1.820312 C 48.492188 2.84375 48.972656 3.875 49.222656 4.992188 C 49.265625 5.1875 49.3125 5.382812 49.375 5.574219 C 49.410156 5.695312 49.488281 5.824219 49.625 5.820312 C 49.800781 5.816406 49.875 5.679688 49.902344 5.515625 C 50.015625 4.839844 50.078125 4.164062 49.894531 3.488281 C 49.835938 3.269531 49.765625 3.050781 49.789062 2.820312 C 49.835938 2.292969 50.152344 2.136719 50.628906 2.378906 C 50.890625 2.511719 50.972656 2.726562 51.03125 2.980469 C 51.21875 3.824219 51.25 4.679688 51.132812 5.535156 C 51.078125 5.914062 51.035156 6.289062 51.148438 6.660156 C 51.539062 7.980469 51.644531 9.324219 51.609375 10.699219 C 51.59375 11.390625 51.484375 12.109375 51.753906 12.792969 C 51.929688 13.242188 52 13.714844 52.078125 14.1875 C 52.292969 15.476562 52.515625 16.765625 52.746094 18.054688 C 53.035156 19.664062 53.453125 21.253906 53.5 22.902344 C 53.539062 24.3125 53.65625 25.71875 53.855469 27.117188 C 53.894531 27.390625 53.921875 27.667969 53.792969 27.933594 C 53.476562 28.585938 53.433594 29.289062 53.421875 30 C 53.414062 30.550781 53.417969 31.105469 53.355469 31.660156 C 53.191406 33.085938 52.875 34.484375 52.800781 35.929688 C 52.671875 38.40625 52.1875 40.832031 51.265625 43.144531 C 50.953125 43.929688 50.765625 44.6875 50.761719 45.539062 C 50.761719 46.007812 50.902344 46.292969 51.191406 46.578125 C 52.59375 47.949219 54.03125 49.296875 55.242188 50.84375 C 56.5625 52.523438 57.355469 54.371094 56.777344 56.566406 C 56.503906 57.613281 56.621094 58.597656 57.113281 59.5625 C 57.476562 60.28125 57.730469 61.03125 57.691406 61.875 C 57.640625 62.882812 57.679688 63.894531 57.691406 64.902344 C 57.699219 65.507812 57.652344 66.125 57.753906 66.714844 C 58.128906 68.878906 58.132812 71.078125 58.410156 73.25 C 58.464844 73.671875 58.5625 73.863281 59.019531 73.914062 C 60.105469 74.035156 61.191406 74.03125 62.269531 73.976562 C 64.414062 73.867188 66.570312 73.792969 68.679688 74.109375 C 70.601562 74.394531 72.574219 74.214844 74.464844 74.972656 C 75.457031 75.371094 76.5 75.660156 77.464844 76.160156 C 78.179688 76.53125 78.429688 77.117188 78.464844 77.878906 C 78.539062 79.367188 78.140625 80.828125 78.285156 82.316406 C 78.316406 82.640625 78.101562 83.011719 78.050781 83.332031 C 77.980469 83.746094 78.003906 84.167969 78.035156 84.582031 C 78.167969 86.160156 77.933594 87.75 77.742188 89.320312 C 77.449219 91.738281 76.945312 94.128906 76.84375 96.570312 C 76.789062 97.898438 76.855469 99.21875 76.945312 100.546875 C 77.066406 102.332031 78.074219 103.445312 79.871094 103.566406 C 80.742188 103.625 81.703125 103.882812 82.566406 103.757812 C 82.765625 103.726562 82.972656 103.695312 83.167969 103.753906 C 83.363281 103.808594 83.539062 103.980469 83.53125 104.179688 C 83.527344 104.316406 83.445312 104.433594 83.359375 104.539062 C 82.847656 105.144531 82.046875 105.554688 81.25 105.550781 C 78.34375 105.542969 75.4375 105.5625 72.53125 105.589844 C 72.226562 105.59375 71.898438 105.589844 71.65625 105.40625 C 71.441406 105.246094 71.335938 104.976562 71.316406 104.710938 C 71.292969 104.390625 71.3125 103.777344 71.453125 103.484375 C 71.730469 102.914062 71.738281 102.328125 71.820312 101.734375 C 72.113281 99.515625 71.894531 97.320312 71.535156 95.132812 C 71.339844 93.945312 70.945312 92.808594 70.804688 91.601562 C 70.609375 89.929688 70.726562 88.273438 70.949219 86.632812 C 71.109375 85.472656 71.46875 84.335938 71.832031 83.207031 C 72.171875 82.144531 71.863281 81.890625 71.042969 81.886719 C 70.847656 81.882812 70.660156 81.84375 70.453125 81.859375 C 69.472656 81.949219 68.535156 82.234375 67.585938 82.464844 C 66.089844 82.832031 64.710938 83.523438 63.265625 84.019531 C 60.636719 84.917969 57.910156 85.128906 55.15625 85.136719 C 53.417969 85.140625 51.679688 85.054688 49.945312 84.933594 C 49.675781 84.917969 49.402344 84.894531 49.144531 85.0625 C 48.320312 85.601562 47.488281 86.121094 46.789062 86.824219 C 46.398438 87.21875 46.015625 87.621094 45.566406 87.953125 C 44.355469 88.855469 43.125 89.726562 41.847656 90.53125 C 39.894531 91.769531 37.945312 93.011719 35.882812 94.074219 C 34.859375 94.601562 33.710938 94.945312 32.835938 95.695312 C 31.886719 96.515625 30.816406 96.769531 29.628906 96.78125 C 28.34375 96.792969 27.085938 97.066406 25.84375 97.3125 C 23.503906 97.769531 21.214844 98.464844 19.042969 99.460938 C 17.425781 100.199219 15.664062 100.527344 14.058594 101.289062 C 13.90625 101.363281 13.714844 101.371094 13.542969 101.378906 C 13.160156 101.394531 12.796875 101.496094 12.433594 101.601562 C 11.53125 101.859375 10.722656 102.261719 9.992188 102.875 C 9.828125 103.011719 9.617188 103.191406 9.574219 103.410156 C 9.535156 103.621094 9.734375 103.847656 9.636719 104.042969 C 9.585938 104.148438 9.464844 104.191406 9.351562 104.226562 C 8.261719 104.546875 7.140625 104.621094 6.015625 104.679688 C 4.789062 104.746094 3.5625 104.753906 2.335938 104.777344 C 2.0625 104.78125 1.757812 104.785156 1.507812 104.660156 C 1.25 104.527344 1.132812 104.25 0.976562 104.019531 C 0.757812 103.703125 0.597656 103.355469 0.578125 102.96875 C 0.566406 102.628906 0.644531 102.402344 0.964844 102.234375 Z M 0.964844 102.234375 " fill-opacity="1" fill-rule="nonzero"/></g><path fill="#274543" d="M 9.667969 104.011719 C 9.679688 103.996094 9.691406 103.980469 9.703125 103.96875 C 9.738281 104.023438 9.730469 104.03125 9.679688 103.992188 Z M 9.667969 104.011719 " fill-opacity="1" fill-rule="nonzero"/></g></g></g></g></g><g transform="matrix(1, 0, 0, 1, 286, 5)"><g clip-path="url(#300e1e5cdf)"><g fill="#274543" fill-opacity="1"><g transform="translate(0.336249, 109.231446)"><g><path d="M 30.625 0 L 24.4375 0 C 22.96875 0 22.234375 -0.734375 22.234375 -2.203125 L 22.234375 -72.84375 L 3.5 -72.84375 C 2.03125 -72.84375 1.296875 -73.578125 1.296875 -75.046875 L 1.296875 -80.484375 C 1.296875 -81.953125 2.03125 -82.6875 3.5 -82.6875 L 51.578125 -82.6875 C 53.046875 -82.6875 53.78125 -81.953125 53.78125 -80.484375 L 53.78125 -75.046875 C 53.78125 -73.578125 53.046875 -72.84375 51.578125 -72.84375 L 32.84375 -72.84375 L 32.84375 -2.203125 C 32.84375 -0.734375 32.101562 0 30.625 0 Z M 30.625 0 "/></g></g></g><g fill="#274543" fill-opacity="1"><g transform="translate(65.817459, 109.231446)"><g><path d="M 40.109375 -82.6875 L 74.296875 -2.53125 C 74.617188 -1.78125 74.625 -1.171875 74.3125 -0.703125 C 74.007812 -0.234375 73.445312 0 72.625 0 L 65.78125 0 C 65.207031 0 64.695312 -0.132812 64.25 -0.40625 C 63.800781 -0.675781 63.46875 -1.097656 63.25 -1.671875 L 57.21875 -16.421875 L 18.890625 -16.421875 L 12.859375 -1.671875 C 12.398438 -0.554688 11.539062 0 10.28125 0 L 3.5 0 C 2.675781 0 2.109375 -0.234375 1.796875 -0.703125 C 1.492188 -1.171875 1.503906 -1.78125 1.828125 -2.53125 L 36.015625 -82.6875 C 36.515625 -83.90625 37.195312 -84.515625 38.0625 -84.515625 C 38.925781 -84.515625 39.609375 -83.90625 40.109375 -82.6875 Z M 38.0625 -63.25 L 22.65625 -25.625 L 53.453125 -25.625 Z M 38.0625 -63.25 "/></g></g></g><g fill="#274543" fill-opacity="1"><g transform="translate(152.292144, 109.231446)"><g><path d="M 30.625 0 L 24.4375 0 C 22.96875 0 22.234375 -0.734375 22.234375 -2.203125 L 22.234375 -72.84375 L 3.5 -72.84375 C 2.03125 -72.84375 1.296875 -73.578125 1.296875 -75.046875 L 1.296875 -80.484375 C 1.296875 -81.953125 2.03125 -82.6875 3.5 -82.6875 L 51.578125 -82.6875 C 53.046875 -82.6875 53.78125 -81.953125 53.78125 -80.484375 L 53.78125 -75.046875 C 53.78125 -73.578125 53.046875 -72.84375 51.578125 -72.84375 L 32.84375 -72.84375 L 32.84375 -2.203125 C 32.84375 -0.734375 32.101562 0 30.625 0 Z M 30.625 0 "/></g></g></g><g fill="#274543" fill-opacity="1"><g transform="translate(226.817036, 109.231446)"><g><path d="M 65.84375 -82.6875 L 72.625 -82.6875 C 73.445312 -82.6875 74.019531 -82.453125 74.34375 -81.984375 C 74.664062 -81.515625 74.648438 -80.90625 74.296875 -80.15625 L 40.109375 0 C 39.640625 1.21875 38.960938 1.828125 38.078125 1.828125 C 37.203125 1.828125 36.515625 1.21875 36.015625 0 L 1.828125 -80.15625 C 1.503906 -80.90625 1.492188 -81.515625 1.796875 -81.984375 C 2.109375 -82.453125 2.675781 -82.6875 3.5 -82.6875 L 10.34375 -82.6875 C 10.945312 -82.6875 11.460938 -82.5625 11.890625 -82.3125 C 12.328125 -82.0625 12.648438 -81.628906 12.859375 -81.015625 L 38.109375 -19.4375 L 63.3125 -81.015625 C 63.707031 -82.128906 64.550781 -82.6875 65.84375 -82.6875 Z M 65.84375 -82.6875 "/></g></g></g><g fill="#274543" fill-opacity="1"><g transform="translate(313.237902, 109.231446)"><g><path d="M 40.109375 -82.6875 L 74.296875 -2.53125 C 74.617188 -1.78125 74.625 -1.171875 74.3125 -0.703125 C 74.007812 -0.234375 73.445312 0 72.625 0 L 65.78125 0 C 65.207031 0 64.695312 -0.132812 64.25 -0.40625 C 63.800781 -0.675781 63.46875 -1.097656 63.25 -1.671875 L 57.21875 -16.421875 L 18.890625 -16.421875 L 12.859375 -1.671875 C 12.398438 -0.554688 11.539062 0 10.28125 0 L 3.5 0 C 2.675781 0 2.109375 -0.234375 1.796875 -0.703125 C 1.492188 -1.171875 1.503906 -1.78125 1.828125 -2.53125 L 36.015625 -82.6875 C 36.515625 -83.90625 37.195312 -84.515625 38.0625 -84.515625 C 38.925781 -84.515625 39.609375 -83.90625 40.109375 -82.6875 Z M 38.0625 -63.25 L 22.65625 -25.625 L 53.453125 -25.625 Z M 38.0625 -63.25 "/></g></g></g></g></g></svg>